<?xml version="1.0" encoding="UTF-8"?>
<svg id="Layer_1" data-name="Layer 1" xmlns="http://www.w3.org/2000/svg" viewBox="0 0 806.87 102.95">
  <defs>
    <style>
      .cls-1 {
        fill: #2e2e2e;
      }

      .cls-2 {
        fill: #7a9b8c;
      }
    </style>
  </defs>
  <path class="cls-2" d="m49.13,93.34c-1.6,2.51-3.47,5.08-5.28,7.48-6.11-2.69-12.08-5.71-17.77-9.19-3.89-2.38-7.66-4.98-11.23-7.85-.85-.7-1.68-1.42-2.5-2.16-4.43-3.96-8.43-8.44-10.52-14.23-.15-.48-.42-1.45-.55-1.93-.3-1.36-.55-2.79-.72-4.12-1.08-7.98-.71-21.8,2.28-34.31.58-2.43,1.26-4.81,2.05-7.08C8.35,9.9,13.9,1.84,22.26.23c6.5-1.18,12.82,2.31,16.96,6.87,7.31,7.99,10.43,19.21,9.99,29.84-.32,7.77-2.69,15.44-6.66,22.12-1.2,2.03-2.56,3.97-4.05,5.79,0-.03,0-.06,0-.09.51-9.8-.18-19.94-4.28-25.71,4.09,3.7,6.47,9.99,7.8,16.89.2-.65.39-1.3.56-1.96,2.94-10.81,2.24-22.78-2.93-32.77-2.79-5.35-7.75-11.7-13.95-12.19-2.66-.08-4.45,1.38-6.17,3.51-2.91,3.79-5.15,9.89-6.69,16.73-.54,2.42-1,4.92-1.37,7.45-1.47,10.06-1.55,20.51-.19,27.05,1.86,6.46,9.88,13.68,18.09,19.64,3.87,2.8,7.77,5.33,11.1,7.36.49.3.96.58,1.42.86,7.62-9.19,21.82-27.35,20.76-39.46,3.77,12.03-7.03,31.14-13.53,41.17Z"/>
  <path class="cls-1" d="m77.09,87.11v-50.4h33.34v8.14h-23.26v12.74h21.1v7.85h-21.1v13.54h23.26v8.14h-33.34Z"/>
  <path class="cls-1" d="m118.92,87.11v-36.29h8.86l.72,5.9c1.15-2.06,2.74-3.71,4.75-4.93,2.02-1.22,4.44-1.84,7.27-1.84,3.02,0,5.57.64,7.63,1.91,2.06,1.27,3.65,3.11,4.75,5.51,1.1,2.4,1.66,5.35,1.66,8.86v20.88h-10.01v-19.94c0-2.78-.61-4.93-1.84-6.44-1.22-1.51-3.08-2.27-5.58-2.27-1.54,0-2.93.37-4.18,1.12-1.25.75-2.22,1.8-2.92,3.17-.7,1.37-1.04,3.04-1.04,5v19.37h-10.08Z"/>
  <path class="cls-1" d="m163.63,87.11v-51.84h10.08v20.81c1.15-1.82,2.74-3.3,4.75-4.43,2.02-1.13,4.32-1.69,6.91-1.69,3.02,0,5.58.64,7.67,1.91,2.09,1.27,3.66,3.13,4.72,5.58,1.05,2.45,1.58,5.42,1.58,8.93v20.74h-10.01v-19.8c0-2.83-.59-5.02-1.76-6.55-1.18-1.54-3.04-2.3-5.58-2.3-1.54,0-2.94.37-4.21,1.12-1.27.75-2.27,1.83-2.99,3.24-.72,1.42-1.08,3.11-1.08,5.08v19.22h-10.08Z"/>
  <path class="cls-1" d="m220.73,87.98c-2.98,0-5.45-.49-7.42-1.48-1.97-.98-3.44-2.3-4.43-3.96-.98-1.66-1.48-3.49-1.48-5.51,0-2.21.56-4.15,1.69-5.83,1.13-1.68,2.84-2.99,5.15-3.92,2.3-.94,5.23-1.4,8.78-1.4h8.78c0-1.78-.22-3.23-.65-4.36-.43-1.13-1.15-1.98-2.16-2.56-1.01-.58-2.33-.86-3.96-.86-1.78,0-3.29.38-4.54,1.15-1.25.77-2.02,1.94-2.3,3.53h-9.72c.24-2.64,1.09-4.91,2.56-6.8,1.46-1.9,3.42-3.37,5.87-4.43,2.45-1.05,5.18-1.58,8.21-1.58,3.41,0,6.38.57,8.93,1.69,2.54,1.13,4.49,2.77,5.83,4.93s2.02,4.82,2.02,7.99v22.54h-8.42l-1.15-5.4c-.53.91-1.17,1.75-1.91,2.52-.75.77-1.6,1.43-2.56,1.98-.96.55-2.02.98-3.17,1.3-1.15.31-2.47.47-3.96.47Zm2.52-7.78c1.2,0,2.27-.2,3.2-.61.94-.41,1.75-1.01,2.45-1.8.7-.79,1.25-1.67,1.66-2.63.41-.96.71-2.02.9-3.17v-.07h-7.27c-1.44,0-2.6.18-3.49.54-.89.36-1.55.85-1.98,1.48-.43.62-.65,1.34-.65,2.16,0,.91.22,1.67.65,2.27.43.6,1.04,1.06,1.84,1.37.79.31,1.69.47,2.7.47Z"/>
  <path class="cls-1" d="m250.97,87.11v-36.29h8.93l.94,6.62c.91-1.54,2.03-2.87,3.35-4,1.32-1.13,2.83-1.99,4.54-2.59,1.7-.6,3.59-.9,5.65-.9v10.66h-3.53c-1.44,0-2.76.16-3.96.47-1.2.31-2.23.85-3.1,1.62-.86.77-1.54,1.79-2.02,3.06-.48,1.27-.72,2.84-.72,4.72v16.63h-10.08Z"/>
  <path class="cls-1" d="m280.7,87.11v-36.29h8.86l.79,4.75c1.15-1.73,2.69-3.1,4.61-4.1,1.92-1.01,4.08-1.51,6.48-1.51,1.82,0,3.47.23,4.93.68,1.46.46,2.75,1.14,3.85,2.05,1.1.91,2.02,2.04,2.74,3.38,1.34-1.87,3.1-3.36,5.26-4.46,2.16-1.1,4.54-1.66,7.13-1.66,3.12,0,5.76.64,7.92,1.91,2.16,1.27,3.77,3.12,4.82,5.54,1.06,2.42,1.58,5.39,1.58,8.89v20.81h-10.01v-19.87c0-2.83-.55-5-1.66-6.52-1.1-1.51-2.78-2.27-5.04-2.27-1.54,0-2.89.37-4.07,1.12-1.18.75-2.09,1.81-2.74,3.2-.65,1.39-.97,3.07-.97,5.04v19.3h-10.01v-19.87c0-2.83-.56-5-1.69-6.52-1.13-1.51-2.87-2.27-5.22-2.27-1.44,0-2.72.37-3.85,1.12-1.13.75-2.02,1.81-2.66,3.2-.65,1.39-.97,3.07-.97,5.04v19.3h-10.08Z"/>
  <path class="cls-1" d="m366.09,87.98c-3.5,0-6.65-.8-9.43-2.41-2.78-1.61-4.97-3.85-6.55-6.73s-2.38-6.14-2.38-9.79.8-7.06,2.41-9.94c1.61-2.88,3.8-5.12,6.59-6.73,2.78-1.61,5.93-2.41,9.43-2.41s6.62.8,9.36,2.41c2.74,1.61,4.92,3.84,6.55,6.7,1.63,2.86,2.45,6.16,2.45,9.9s-.82,6.98-2.45,9.86-3.83,5.12-6.59,6.73-5.89,2.41-9.4,2.41Zm0-8.71c1.49,0,2.84-.4,4.07-1.19,1.22-.79,2.21-1.94,2.95-3.46.74-1.51,1.12-3.4,1.12-5.65s-.36-4.15-1.08-5.69c-.72-1.54-1.68-2.69-2.88-3.46-1.2-.77-2.54-1.15-4.03-1.15s-2.93.38-4.18,1.15c-1.25.77-2.24,1.92-2.99,3.46-.74,1.54-1.12,3.43-1.12,5.69s.36,4.14,1.08,5.65c.72,1.51,1.7,2.66,2.95,3.46s2.62,1.19,4.1,1.19Z"/>
  <path class="cls-1" d="m392.88,87.11v-36.29h8.86l.72,5.9c1.15-2.06,2.74-3.71,4.75-4.93,2.02-1.22,4.44-1.84,7.27-1.84,3.02,0,5.57.64,7.63,1.91,2.06,1.27,3.65,3.11,4.75,5.51,1.1,2.4,1.65,5.35,1.65,8.86v20.88h-10.01v-19.94c0-2.78-.61-4.93-1.84-6.44-1.22-1.51-3.08-2.27-5.58-2.27-1.54,0-2.93.37-4.18,1.12-1.25.75-2.22,1.8-2.92,3.17s-1.04,3.04-1.04,5v19.37h-10.08Z"/>
  <path class="cls-1" d="m441.19,102.95l8.78-19.87h-2.23l-14.47-32.26h10.94l10.15,22.9,9-22.9h10.8l-22.32,52.13h-10.66Z"/>
  <path class="cls-2" d="m507.5,87.11l-13.18-50.4h10.8l8.5,39.02,10.15-39.02h11.16l9.86,39.02,8.64-39.02h10.87l-13.54,50.4h-12.02l-9.5-36.22-9.79,36.22h-11.95Z"/>
  <path class="cls-2" d="m584.76,87.98c-3.7,0-6.95-.79-9.76-2.38-2.81-1.58-4.99-3.78-6.55-6.59-1.56-2.81-2.34-6.04-2.34-9.68s.77-7.13,2.3-10.01,3.71-5.16,6.52-6.84c2.81-1.68,6.08-2.52,9.83-2.52s6.74.79,9.43,2.38c2.69,1.58,4.79,3.72,6.3,6.41,1.51,2.69,2.27,5.76,2.27,9.22,0,.48-.01,1.02-.04,1.62-.03.6-.06,1.21-.11,1.84h-29.38v-6.05h19.37c-.14-2.16-.95-3.91-2.41-5.26-1.46-1.34-3.28-2.02-5.44-2.02-1.63,0-3.11.38-4.43,1.15-1.32.77-2.36,1.9-3.13,3.38-.77,1.49-1.15,3.38-1.15,5.69v2.09c0,1.87.35,3.5,1.04,4.9.7,1.39,1.69,2.48,2.99,3.28s2.81,1.19,4.54,1.19,3.2-.36,4.28-1.08,1.91-1.66,2.48-2.81h10.3c-.62,2.3-1.74,4.37-3.35,6.19-1.61,1.83-3.56,3.26-5.87,4.32-2.3,1.05-4.87,1.58-7.7,1.58Z"/>
  <path class="cls-2" d="m610.75,87.11v-51.84h10.08v51.84h-10.08Z"/>
  <path class="cls-2" d="m630.26,87.11v-51.84h10.08v51.84h-10.08Z"/>
  <path class="cls-2" d="m649.77,87.11v-36.29h8.86l.72,5.9c1.15-2.06,2.74-3.71,4.75-4.93,2.02-1.22,4.44-1.84,7.27-1.84,3.02,0,5.57.64,7.63,1.91,2.06,1.27,3.65,3.11,4.75,5.51,1.1,2.4,1.66,5.35,1.66,8.86v20.88h-10.01v-19.94c0-2.78-.61-4.93-1.84-6.44-1.22-1.51-3.08-2.27-5.58-2.27-1.54,0-2.93.37-4.18,1.12-1.25.75-2.22,1.8-2.92,3.17-.7,1.37-1.04,3.04-1.04,5v19.37h-10.08Z"/>
  <path class="cls-2" d="m712.05,87.98c-3.7,0-6.95-.79-9.76-2.38-2.81-1.58-4.99-3.78-6.55-6.59-1.56-2.81-2.34-6.04-2.34-9.68s.77-7.13,2.3-10.01,3.71-5.16,6.52-6.84c2.81-1.68,6.08-2.52,9.83-2.52s6.74.79,9.43,2.38c2.69,1.58,4.79,3.72,6.3,6.41,1.51,2.69,2.27,5.76,2.27,9.22,0,.48-.01,1.02-.04,1.62-.03.6-.06,1.21-.11,1.84h-29.38v-6.05h19.37c-.14-2.16-.95-3.91-2.41-5.26-1.46-1.34-3.28-2.02-5.44-2.02-1.63,0-3.11.38-4.43,1.15-1.32.77-2.36,1.9-3.13,3.38-.77,1.49-1.15,3.38-1.15,5.69v2.09c0,1.87.35,3.5,1.04,4.9.7,1.39,1.69,2.48,2.99,3.28s2.81,1.19,4.54,1.19,3.2-.36,4.28-1.08,1.91-1.66,2.48-2.81h10.3c-.62,2.3-1.74,4.37-3.35,6.19-1.61,1.83-3.56,3.26-5.87,4.32-2.3,1.05-4.87,1.58-7.7,1.58Z"/>
  <path class="cls-2" d="m752.94,87.98c-3.41,0-6.33-.54-8.75-1.62-2.42-1.08-4.33-2.54-5.72-4.39-1.39-1.85-2.18-3.95-2.38-6.3h10.01c.19.82.58,1.58,1.15,2.3.58.72,1.32,1.3,2.23,1.73.91.43,2.02.65,3.31.65s2.28-.18,3.1-.54c.82-.36,1.42-.83,1.8-1.4.38-.58.58-1.2.58-1.87,0-.96-.29-1.69-.86-2.2s-1.4-.95-2.48-1.33c-1.08-.38-2.41-.7-4-.94-1.68-.38-3.36-.82-5.04-1.3-1.68-.48-3.18-1.12-4.5-1.91s-2.36-1.79-3.13-2.99c-.77-1.2-1.15-2.69-1.15-4.46,0-2.11.58-4.04,1.73-5.8,1.15-1.75,2.87-3.13,5.15-4.14,2.28-1.01,4.96-1.51,8.03-1.51,4.46,0,7.97.98,10.51,2.95,2.54,1.97,4.06,4.68,4.54,8.14h-9.43c-.29-1.1-.91-1.94-1.87-2.52-.96-.58-2.23-.86-3.82-.86s-2.89.3-3.78.9c-.89.6-1.33,1.36-1.33,2.27,0,.67.29,1.25.86,1.73.58.48,1.4.91,2.48,1.3,1.08.38,2.39.74,3.92,1.08,2.88.58,5.38,1.24,7.49,1.98,2.11.75,3.77,1.8,4.97,3.17,1.2,1.37,1.8,3.35,1.8,5.94,0,2.35-.62,4.43-1.87,6.23-1.25,1.8-3.02,3.2-5.33,4.21-2.3,1.01-5.04,1.51-8.21,1.51Z"/>
  <path class="cls-2" d="m791.46,87.98c-3.41,0-6.33-.54-8.75-1.62-2.42-1.08-4.33-2.54-5.72-4.39-1.39-1.85-2.18-3.95-2.38-6.3h10.01c.19.82.58,1.58,1.15,2.3.58.72,1.32,1.3,2.23,1.73.91.43,2.02.65,3.31.65s2.28-.18,3.1-.54c.82-.36,1.42-.83,1.8-1.4.38-.58.58-1.2.58-1.87,0-.96-.29-1.69-.86-2.2s-1.4-.95-2.48-1.33c-1.08-.38-2.41-.7-4-.94-1.68-.38-3.36-.82-5.04-1.3-1.68-.48-3.18-1.12-4.5-1.91s-2.36-1.79-3.13-2.99c-.77-1.2-1.15-2.69-1.15-4.46,0-2.11.58-4.04,1.73-5.8,1.15-1.75,2.87-3.13,5.15-4.14,2.28-1.01,4.96-1.51,8.03-1.51,4.46,0,7.97.98,10.51,2.95,2.54,1.97,4.06,4.68,4.54,8.14h-9.43c-.29-1.1-.91-1.94-1.87-2.52-.96-.58-2.23-.86-3.82-.86s-2.89.3-3.78.9c-.89.6-1.33,1.36-1.33,2.27,0,.67.29,1.25.86,1.73.58.48,1.4.91,2.48,1.3,1.08.38,2.39.74,3.92,1.08,2.88.58,5.38,1.24,7.49,1.98,2.11.75,3.77,1.8,4.97,3.17,1.2,1.37,1.8,3.35,1.8,5.94,0,2.35-.62,4.43-1.87,6.23-1.25,1.8-3.02,3.2-5.33,4.21-2.3,1.01-5.04,1.51-8.21,1.51Z"/>
</svg>