<svg width="240" height="30" viewBox="0 0 240 30" fill="none" xmlns="http://www.w3.org/2000/svg">
<g clip-path="url(#clip0_5_797)">
<path d="M14.6135 27.1995C14.1376 27.931 13.5814 28.6799 13.043 29.3792C11.2256 28.5954 9.44985 27.7153 7.75739 26.7012C6.60032 26.0077 5.47895 25.2501 4.41707 24.4137C4.16424 24.2097 3.91736 23.9999 3.67346 23.7843C2.35577 22.6303 1.16599 21.3249 0.54433 19.6376C0.499713 19.4978 0.419402 19.2151 0.380734 19.0752C0.291501 18.6789 0.217139 18.2622 0.166573 17.8746C-0.154668 15.5492 -0.044613 11.522 0.84475 7.87658C1.01727 7.16847 1.21953 6.47493 1.45451 5.81344C2.48368 2.88483 4.1345 0.536122 6.62115 0.066962C8.55454 -0.276894 10.4344 0.740104 11.6658 2.0689C13.8402 4.39722 14.7682 7.66677 14.6373 10.7644C14.5421 13.0286 13.8372 15.2637 12.6563 17.2102C12.2994 17.8018 11.8949 18.3671 11.4517 18.8975C11.4517 18.8887 11.4517 18.88 11.4517 18.8712C11.6034 16.0155 11.3981 13.0606 10.1786 11.3792C11.3951 12.4574 12.1031 14.2904 12.4987 16.3011C12.5582 16.1116 12.6147 15.9222 12.6652 15.7299C13.5397 12.5798 13.3315 9.09173 11.7937 6.18061C10.9639 4.6216 9.48852 2.77119 7.64436 2.6284C6.85315 2.60509 6.32073 3.03054 5.80912 3.65123C4.94355 4.75565 4.27727 6.53321 3.81921 8.52641C3.65859 9.2316 3.52176 9.96011 3.41171 10.6974C2.97446 13.6289 2.95067 16.6741 3.35519 18.5798C3.90844 20.4623 6.29396 22.5662 8.73598 24.303C9.8871 25.1189 11.0471 25.8562 12.0376 26.4477C12.1834 26.5352 12.3232 26.6167 12.46 26.6983C14.7265 24.0203 18.9503 18.7284 18.635 15.1996C19.7563 18.7051 16.5439 24.2739 14.6105 27.1966L14.6135 27.1995Z" fill="#F7F4F0"/>
<path d="M22.9302 25.3843V10.6975H32.847V13.0695H25.9284V16.782H32.2045V19.0695H25.9284V23.0151H32.847V25.3872H22.9302V25.3843Z" fill="#F7F4F0"/>
<path d="M35.3721 25.3842V14.8092H38.0075L38.2216 16.5285C38.5637 15.9282 39.0366 15.4474 39.6345 15.0918C40.2354 14.7363 40.9552 14.5557 41.7969 14.5557C42.6952 14.5557 43.4537 14.7422 44.0664 15.1122C44.6792 15.4823 45.1521 16.0185 45.4793 16.7179C45.8065 17.4172 45.9731 18.2769 45.9731 19.2997V25.3842H42.9956V19.5736C42.9956 18.7635 42.8142 18.137 42.4483 17.697C42.0855 17.257 41.5322 17.0355 40.7886 17.0355C40.3305 17.0355 39.9171 17.1433 39.5453 17.3619C39.1735 17.5804 38.8849 17.8864 38.6767 18.2856C38.4685 18.6849 38.3674 19.1715 38.3674 19.7426V25.3871H35.3691L35.3721 25.3842Z" fill="#F7F4F0"/>
<path d="M48.6709 25.3842V10.2778H51.6692V16.3419C52.0112 15.8116 52.4842 15.3803 53.082 15.051C53.6829 14.7217 54.367 14.5586 55.1374 14.5586C56.0356 14.5586 56.7971 14.745 57.4188 15.1151C58.0404 15.4852 58.5074 16.0272 58.8227 16.7412C59.135 17.4551 59.2927 18.3206 59.2927 19.3434V25.3871H56.3153V19.6173C56.3153 18.7926 56.1398 18.1545 55.7917 17.7086C55.4408 17.2599 54.8875 17.0384 54.132 17.0384C53.6739 17.0384 53.2575 17.1462 52.8798 17.3648C52.502 17.5833 52.2045 17.898 51.9904 18.3089C51.7762 18.7227 51.6692 19.2152 51.6692 19.7892V25.39H48.6709V25.3842Z" fill="#F7F4F0"/>
<path d="M65.6554 25.6378C64.769 25.6378 64.0343 25.495 63.4483 25.2065C62.8624 24.9209 62.4251 24.5363 62.1307 24.0525C61.8392 23.5688 61.6904 23.0355 61.6904 22.4469C61.6904 21.8029 61.857 21.2376 62.1931 20.748C62.5292 20.2585 63.0379 19.8767 63.725 19.6057C64.4091 19.3318 65.2806 19.1978 66.3365 19.1978H68.9481C68.9481 18.6791 68.8827 18.2565 68.7548 17.9272C68.6269 17.5979 68.4127 17.3503 68.1123 17.1812C67.8119 17.0122 67.4192 16.9306 66.9344 16.9306C66.4049 16.9306 65.9558 17.0414 65.584 17.2657C65.2122 17.4901 64.9832 17.8311 64.8999 18.2944H62.0087C62.0801 17.5251 62.3329 16.8636 62.7702 16.3129C63.2044 15.7592 63.7874 15.3308 64.5162 15.0219C65.2449 14.716 66.0569 14.5615 66.9582 14.5615C67.9725 14.5615 68.8559 14.7276 69.6144 15.054C70.3699 15.3833 70.9499 15.8612 71.3485 16.4906C71.7471 17.12 71.9493 17.8952 71.9493 18.8189V25.3872H69.4448L69.1028 23.8136C68.9451 24.0788 68.7548 24.3235 68.5347 24.5479C68.3116 24.7723 68.0587 24.9646 67.7732 25.1249C67.4877 25.2852 67.1724 25.4105 66.8303 25.5037C66.4882 25.5941 66.0956 25.6407 65.6524 25.6407L65.6554 25.6378ZM66.4049 23.3707C66.7619 23.3707 67.0801 23.3124 67.3568 23.1929C67.6364 23.0734 67.8773 22.8986 68.0855 22.6684C68.2937 22.4382 68.4573 22.1817 68.5793 21.902C68.7012 21.6222 68.7905 21.3133 68.847 20.9782V20.9578H66.6845C66.2562 20.9578 65.9112 21.0103 65.6465 21.1152C65.3817 21.2201 65.1854 21.3629 65.0575 21.5465C64.9296 21.7271 64.8642 21.9369 64.8642 22.1759C64.8642 22.4411 64.9296 22.6625 65.0575 22.8374C65.1854 23.0122 65.3669 23.1463 65.6048 23.2366C65.8398 23.3269 66.1075 23.3736 66.4079 23.3736L66.4049 23.3707Z" fill="#F7F4F0"/>
<path d="M74.6499 25.3842V14.8092H77.3061L77.5857 16.7383C77.8564 16.2895 78.1895 15.9019 78.5821 15.5727C78.9748 15.2434 79.4239 14.9928 79.9325 14.8179C80.4382 14.6431 81.0004 14.5557 81.6131 14.5557V17.662H80.5631C80.1348 17.662 79.7422 17.7087 79.3852 17.799C79.0283 17.8893 78.7219 18.0467 78.4632 18.2711C78.2074 18.4954 78.0051 18.7927 77.8623 19.1628C77.7195 19.5328 77.6482 19.9903 77.6482 20.5382V25.3842H74.6499Z" fill="#F7F4F0"/>
<path d="M83.4932 25.3842V14.8092H86.1285L86.3635 16.1934C86.7056 15.6892 87.1636 15.29 87.7347 14.9986C88.3058 14.7043 88.9483 14.5586 89.6622 14.5586C90.2035 14.5586 90.6943 14.6256 91.1286 14.7567C91.5629 14.8908 91.9466 15.0889 92.2738 15.3541C92.6009 15.6193 92.8746 15.9486 93.0888 16.3391C93.4873 15.7941 94.0108 15.3599 94.6533 15.0394C95.2958 14.7189 96.0037 14.5557 96.7741 14.5557C97.7021 14.5557 98.4874 14.7422 99.1299 15.1122C99.7724 15.4823 100.251 16.0214 100.564 16.7266C100.879 17.4318 101.034 18.2973 101.034 19.3172V25.3813H98.0561V19.5911C98.0561 18.7664 97.8925 18.1341 97.5623 17.6912C97.2352 17.2511 96.7354 17.0297 96.0632 17.0297C95.6051 17.0297 95.2036 17.1375 94.8526 17.3561C94.5016 17.5746 94.2309 17.8835 94.0376 18.2885C93.8443 18.6936 93.7491 19.1832 93.7491 19.7572V25.3813H90.7717V19.5911C90.7717 18.7664 90.6051 18.1341 90.269 17.6912C89.9329 17.2511 89.4153 17.0297 88.7163 17.0297C88.288 17.0297 87.9073 17.1375 87.5711 17.3561C87.235 17.5746 86.9703 17.8835 86.7799 18.2885C86.5866 18.6936 86.4914 19.1832 86.4914 19.7572V25.3813H83.4932V25.3842Z" fill="#F7F4F0"/>
<path d="M108.892 25.6378C107.851 25.6378 106.914 25.4047 106.087 24.9355C105.26 24.4663 104.609 23.8136 104.139 22.9743C103.669 22.1351 103.431 21.1851 103.431 20.1215C103.431 19.0579 103.669 18.0642 104.148 17.225C104.626 16.3857 105.278 15.733 106.108 15.2638C106.935 14.7946 107.872 14.5615 108.913 14.5615C109.954 14.5615 110.882 14.7946 111.697 15.2638C112.512 15.733 113.16 16.3828 113.645 17.2162C114.13 18.0496 114.374 19.0113 114.374 20.1011C114.374 21.191 114.13 22.1351 113.645 22.9743C113.16 23.8136 112.506 24.4663 111.685 24.9355C110.864 25.4047 109.933 25.6378 108.889 25.6378H108.892ZM108.892 23.0996C109.335 23.0996 109.737 22.9831 110.102 22.7529C110.465 22.5227 110.76 22.1876 110.98 21.7446C111.2 21.3046 111.313 20.7539 111.313 20.0982C111.313 19.4425 111.206 18.8889 110.992 18.4401C110.778 17.9913 110.492 17.6562 110.135 17.4318C109.778 17.2075 109.38 17.0967 108.936 17.0967C108.493 17.0967 108.065 17.2075 107.693 17.4318C107.321 17.6562 107.027 17.9913 106.804 18.4401C106.584 18.8889 106.471 19.4396 106.471 20.0982C106.471 20.7568 106.578 21.3046 106.792 21.7446C107.006 22.1846 107.297 22.5198 107.669 22.7529C108.041 22.986 108.449 23.0996 108.889 23.0996H108.892Z" fill="#F7F4F0"/>
<path d="M116.86 25.3842V14.8092H119.496L119.71 16.5285C120.052 15.9282 120.525 15.4474 121.123 15.0918C121.724 14.7363 122.444 14.5557 123.285 14.5557C124.184 14.5557 124.942 14.7422 125.555 15.1122C126.168 15.4823 126.64 16.0185 126.968 16.7179C127.295 17.4172 127.458 18.2769 127.458 19.2997V25.3842H124.481V19.5736C124.481 18.7635 124.3 18.137 123.934 17.697C123.571 17.257 123.018 17.0355 122.274 17.0355C121.816 17.0355 121.402 17.1433 121.031 17.3619C120.659 17.5804 120.37 17.8864 120.162 18.2856C119.954 18.6849 119.853 19.1715 119.853 19.7426V25.3871H116.854L116.86 25.3842Z" fill="#F7F4F0"/>
<path d="M131.23 30L133.842 24.2098H133.179L128.875 14.8091H132.129L135.148 21.4822L137.825 14.8091H141.037L134.398 30H131.227H131.23Z" fill="#F7F4F0"/>
<path d="M150.954 25.3843L147.033 10.6975H150.246L152.774 22.0681L155.793 10.6975H159.112L162.045 22.0681L164.615 10.6975H167.848L163.821 25.3843H160.246L157.42 14.8296L154.508 25.3843H150.954Z" fill="#F7F4F0"/>
<path d="M173.935 25.6378C172.834 25.6378 171.867 25.4076 171.032 24.9442C170.196 24.4838 169.547 23.8427 169.083 23.0239C168.619 22.205 168.387 21.2638 168.387 20.2031C168.387 19.1424 168.616 18.1254 169.071 17.2861C169.526 16.4469 170.175 15.7825 171.011 15.2929C171.847 14.8034 172.819 14.5586 173.935 14.5586C175.05 14.5586 175.939 14.7888 176.739 15.2521C177.54 15.7126 178.164 16.3362 178.613 17.12C179.063 17.9039 179.289 18.7985 179.289 19.8068C179.289 19.9466 179.286 20.104 179.277 20.2788C179.268 20.4537 179.259 20.6314 179.244 20.815H170.505V19.052H176.267C176.225 18.4226 175.984 17.9126 175.55 17.5193C175.115 17.1288 174.574 16.9306 173.932 16.9306C173.447 16.9306 173.007 17.0414 172.614 17.2657C172.221 17.4901 171.912 17.8194 171.683 18.2507C171.454 18.6849 171.341 19.2356 171.341 19.9088V20.5178C171.341 21.0627 171.445 21.5377 171.65 21.9457C171.858 22.3507 172.153 22.6684 172.54 22.9015C172.926 23.1346 173.375 23.2483 173.89 23.2483C174.405 23.2483 174.842 23.1433 175.163 22.9335C175.484 22.7237 175.731 22.4498 175.901 22.1147H178.964C178.78 22.7849 178.447 23.3881 177.968 23.9185C177.489 24.4517 176.909 24.8685 176.222 25.1773C175.538 25.4833 174.773 25.6378 173.932 25.6378H173.935Z" fill="#F7F4F0"/>
<path d="M181.665 25.3842V10.2778H184.663V25.3842H181.665Z" fill="#F7F4F0"/>
<path d="M187.468 25.3842V10.2778H190.467V25.3842H187.468Z" fill="#F7F4F0"/>
<path d="M193.272 25.3842V14.8092H195.907L196.121 16.5285C196.463 15.9282 196.936 15.4474 197.534 15.0918C198.135 14.7363 198.855 14.5557 199.696 14.5557C200.595 14.5557 201.353 14.7422 201.966 15.1122C202.579 15.4823 203.052 16.0185 203.379 16.7179C203.706 17.4172 203.872 18.2769 203.872 19.2997V25.3842H200.895V19.5736C200.895 18.7635 200.714 18.137 200.348 17.697C199.985 17.257 199.432 17.0355 198.688 17.0355C198.23 17.0355 197.816 17.1433 197.445 17.3619C197.073 17.5804 196.784 17.8864 196.576 18.2856C196.368 18.6849 196.267 19.1715 196.267 19.7426V25.3871H193.269L193.272 25.3842Z" fill="#F7F4F0"/>
<path d="M211.796 25.6378C210.696 25.6378 209.729 25.4076 208.893 24.9442C208.057 24.4838 207.409 23.8427 206.945 23.0239C206.481 22.205 206.249 21.2638 206.249 20.2031C206.249 19.1424 206.478 18.1254 206.933 17.2861C207.388 16.4469 208.037 15.7825 208.872 15.2929C209.708 14.8034 210.681 14.5586 211.796 14.5586C212.912 14.5586 213.801 14.7888 214.601 15.2521C215.401 15.7126 216.026 16.3362 216.475 17.12C216.924 17.9039 217.15 18.7985 217.15 19.8068C217.15 19.9466 217.147 20.104 217.139 20.2788C217.13 20.4537 217.121 20.6314 217.106 20.815H208.367V19.052H214.128C214.087 18.4226 213.846 17.9126 213.412 17.5193C212.977 17.1288 212.436 16.9306 211.793 16.9306C211.309 16.9306 210.868 17.0414 210.476 17.2657C210.083 17.4901 209.774 17.8194 209.545 18.2507C209.316 18.6849 209.203 19.2356 209.203 19.9088V20.5178C209.203 21.0627 209.307 21.5377 209.512 21.9457C209.72 22.3507 210.015 22.6684 210.401 22.9015C210.788 23.1346 211.237 23.2483 211.752 23.2483C212.266 23.2483 212.704 23.1433 213.025 22.9335C213.346 22.7237 213.593 22.4498 213.762 22.1147H216.826C216.642 22.7849 216.309 23.3881 215.83 23.9185C215.351 24.4517 214.771 24.8685 214.084 25.1773C213.4 25.4833 212.635 25.6378 211.793 25.6378H211.796Z" fill="#F7F4F0"/>
<path d="M223.959 25.6378C222.944 25.6378 222.076 25.4804 221.356 25.1657C220.636 24.851 220.068 24.4255 219.655 23.8864C219.241 23.3473 219.006 22.7354 218.947 22.0506H221.924C221.981 22.2895 222.097 22.511 222.266 22.7208C222.439 22.9306 222.659 23.0996 222.93 23.2249C223.2 23.3502 223.53 23.4143 223.914 23.4143C224.298 23.4143 224.592 23.3619 224.836 23.257C225.08 23.1521 225.259 23.0151 225.372 22.849C225.485 22.68 225.544 22.4993 225.544 22.3041C225.544 22.0244 225.458 21.8116 225.288 21.663C225.119 21.5144 224.872 21.3862 224.551 21.2754C224.229 21.1647 223.834 21.0715 223.361 21.0015C222.861 20.8908 222.361 20.7626 221.862 20.6227C221.362 20.4828 220.916 20.2963 220.523 20.0661C220.131 19.8359 219.821 19.5445 219.592 19.1948C219.363 18.8451 219.25 18.4109 219.25 17.8952C219.25 17.2803 219.423 16.7179 219.765 16.205C220.107 15.6951 220.618 15.2929 221.297 14.9986C221.975 14.7043 222.772 14.5586 223.685 14.5586C225.012 14.5586 226.056 14.8442 226.811 15.4182C227.567 15.9923 228.019 16.782 228.162 17.7903H225.357C225.27 17.4697 225.086 17.2249 224.801 17.0559C224.515 16.8869 224.137 16.8053 223.664 16.8053C223.191 16.8053 222.805 16.8927 222.54 17.0676C222.275 17.2424 222.144 17.4639 222.144 17.7291C222.144 17.9243 222.231 18.0933 222.4 18.2332C222.573 18.3731 222.817 18.4984 223.138 18.612C223.459 18.7228 223.849 18.8277 224.304 18.9267C225.16 19.0957 225.904 19.2881 226.532 19.5037C227.159 19.7223 227.653 20.0282 228.01 20.4275C228.367 20.8267 228.545 21.4037 228.545 22.1584C228.545 22.8432 228.361 23.4493 227.989 23.9738C227.617 24.4984 227.091 24.9063 226.404 25.2007C225.72 25.495 224.905 25.6407 223.962 25.6407L223.959 25.6378Z" fill="#F7F4F0"/>
<path d="M235.416 25.6378C234.402 25.6378 233.533 25.4804 232.814 25.1657C232.094 24.851 231.526 24.4255 231.112 23.8864C230.699 23.3473 230.464 22.7354 230.404 22.0506H233.382C233.438 22.2895 233.554 22.511 233.724 22.7208C233.896 22.9306 234.116 23.0996 234.387 23.2249C234.658 23.3502 234.988 23.4143 235.372 23.4143C235.755 23.4143 236.05 23.3619 236.294 23.257C236.538 23.1521 236.716 23.0151 236.829 22.849C236.942 22.68 237.002 22.4993 237.002 22.3041C237.002 22.0244 236.915 21.8116 236.746 21.663C236.576 21.5144 236.329 21.3862 236.008 21.2754C235.687 21.1647 235.291 21.0715 234.818 21.0015C234.319 20.8908 233.819 20.7626 233.319 20.6227C232.82 20.4828 232.373 20.2963 231.981 20.0661C231.588 19.8359 231.279 19.5445 231.05 19.1948C230.821 18.8451 230.708 18.4109 230.708 17.8952C230.708 17.2803 230.88 16.7179 231.222 16.205C231.564 15.6951 232.076 15.2929 232.754 14.9986C233.432 14.7043 234.229 14.5586 235.143 14.5586C236.469 14.5586 237.513 14.8442 238.269 15.4182C239.024 15.9923 239.476 16.782 239.619 17.7903H236.814C236.728 17.4697 236.544 17.2249 236.258 17.0559C235.972 16.8869 235.595 16.8053 235.122 16.8053C234.649 16.8053 234.262 16.8927 233.997 17.0676C233.733 17.2424 233.602 17.4639 233.602 17.7291C233.602 17.9243 233.688 18.0933 233.858 18.2332C234.03 18.3731 234.274 18.4984 234.595 18.612C234.917 18.7228 235.306 18.8277 235.761 18.9267C236.618 19.0957 237.362 19.2881 237.989 19.5037C238.617 19.7223 239.111 20.0282 239.467 20.4275C239.824 20.8267 240.003 21.4037 240.003 22.1584C240.003 22.8432 239.818 23.4493 239.447 23.9738C239.075 24.4984 238.548 24.9063 237.861 25.2007C237.177 25.495 236.362 25.6407 235.419 25.6407L235.416 25.6378Z" fill="#F7F4F0"/>
</g>
<defs>
<clipPath id="clip0_5_797">
<rect width="240" height="30" fill="white"/>
</clipPath>
</defs>
</svg>
